<?xml version="1.0" encoding="utf-8"?>
<!-- Generator: Adobe Illustrator 18.0.0, SVG Export Plug-In . SVG Version: 6.00 Build 0)  -->
<!DOCTYPE svg PUBLIC "-//W3C//DTD SVG 1.1 Basic//EN" "http://www.w3.org/Graphics/SVG/1.1/DTD/svg11-basic.dtd">
<svg version="1.1" baseProfile="basic" id="Layer_1"
	 xmlns="http://www.w3.org/2000/svg" xmlns:xlink="http://www.w3.org/1999/xlink" x="0px" y="0px" viewBox="0 0 290 95"
	 xml:space="preserve">
<g>
	<g>
		<path fill="#F2F2F2" d="M106,59.4c0,12.9-6.9,20.2-19.6,20.2H69.3V39.2h17.1C99.1,39.2,106,46.5,106,59.4z M95.2,59.4
			c0-8.1-3-12.2-9.9-12.2h-5.6v24.5h5.6C92.2,71.7,95.2,67.5,95.2,59.4z"/>
		<path fill="#F2F2F2" d="M136.1,67h-20.9c0.6,4.2,2.8,5.9,6.4,5.9c3.1,0,4.8-1.3,5.8-3.5l8.3,2.8c-1.8,5.3-7.6,8.1-14.1,8.1
			c-10.2,0-16.5-5.8-16.5-15.9s6.5-15.9,16-15.9c9.7,0,15.2,6.1,15.2,14.5C136.4,64.5,136.2,66,136.1,67z M115.3,61.4h11.1
			c-0.4-3.7-2.1-5.7-5.3-5.7C117.9,55.7,115.9,57.5,115.3,61.4z"/>
		<path fill="#F2F2F2" d="M134.2,74.4l4.9-5.8c2,2.6,5.6,4.6,9.7,4.6c2.5,0,4.3-0.7,4.3-2.3c0-1.1-0.6-1.8-3.1-2.3l-4.3-0.9
			c-7.7-1.6-10.6-4.5-10.6-9.5c0-5,4.5-10,14.4-10c6.2,0,11,1.9,13.8,5.3l-5,5.6c-2-2.4-5.4-3.9-8.4-3.9c-3,0-4.5,0.9-4.5,2.3
			c0,1.1,0.9,1.8,3.6,2.4l5.6,1.1c6.3,1.2,8.9,4.3,8.9,8.6c0,5.9-4.8,10.5-14.4,10.5C143.2,80.2,137.7,78.2,134.2,74.4z"/>
		<path fill="#F2F2F2" d="M162.4,40.5c0-3.5,1.8-5,6.1-5s6.1,1.5,6.1,5c0,3.4-1.8,5-6.1,5S162.4,43.9,162.4,40.5z M173.7,79.6h-10.4
			V49h10.4V79.6z"/>
		<path fill="#F2F2F2" d="M205.5,81.5c0,7.7-6.5,11.3-16.8,11.3c-11.1,0-15.7-2.9-15.7-7.7c0-2.8,1.7-4.8,5.9-5.6
			c-3.1-1.1-4.5-3.2-4.5-6.2c0-2.9,1.8-5.1,4.8-6.2c-3.2-1.7-4.9-4.5-4.9-8.3c0-6.6,5.4-10.4,14.8-10.4c2.4,0,4.5,0.2,6.4,0.7
			c0.6-4.7,3.5-8.8,9.5-8.3l0.9,6.9c-3.8-0.6-5.9,0.9-6.6,2.9c3,1.8,4.6,4.5,4.6,8.1c0,6.6-5.4,10.3-14.8,10.3c-2.1,0-4-0.2-5.8-0.6
			c-1.5,0.4-2,1.2-2,2.1c0,1.3,1.1,2.1,3.4,2.1h9.7C201.5,72.8,205.5,75.9,205.5,81.5z M197.4,82.9c0-1.2-0.8-2-3.1-2h-11
			c-1.6,0-2.6,0.9-2.6,2.1c0,1.8,2.9,2.9,7.9,2.9C194.6,86.1,197.4,84.8,197.4,82.9z M184.5,58.8c0,2.8,1.8,4.4,4.5,4.4
			c2.6,0,4.5-1.6,4.5-4.4c0-2.9-1.9-4.5-4.5-4.5C186.4,54.4,184.5,55.9,184.5,58.8z"/>
		<path fill="#F2F2F2" d="M234.5,59.3v20.4h-10.4V62c0-4.2-1.8-5.6-4.3-5.6c-3,0-5.5,2-5.5,7v16.2h-10.4V49h9.3l0.3,6.2
			c1.8-4.5,5.6-6.8,10.5-6.8C230.2,48.4,234.5,52.2,234.5,59.3z"/>
	</g>
	<g>
		<path fill="#D2D3D4" d="M74.2,35.3h-5.1V4.1h5.1V35.3z"/>
		<path fill="#D2D3D4" d="M99.8,20v15.4h-5.1V21.6c0-4.6-2.2-6.2-5.1-6.2c-3.1,0-6.4,2-6.4,7.4v12.6h-5.1V11.7h4.5l0.2,4.1
			c1.6-3.1,4.5-4.5,8-4.5C95.9,11.2,99.8,14.1,99.8,20z"/>
		<path fill="#D2D3D4" d="M100.9,30.6l3.5-3c1.4,2.6,4.1,4.3,7.7,4.3c2.9,0,4.7-1.1,4.7-2.9c0-1.2-0.6-2.2-2.8-2.7l-5-1
			c-5-1-7-3.3-7-6.7c0-3.8,3.6-7.3,9.8-7.3c4.7,0,8.2,1.8,9.9,4.8l-3.5,2.9c-1.2-2.5-3.8-3.7-6.3-3.7c-3.1,0-4.8,1.2-4.8,3
			c0,1.2,0.8,2.2,3.3,2.7l5.4,1.1c4.5,0.9,6.2,3.1,6.2,6.1c0,4.5-3.8,7.6-9.9,7.6C107.3,35.8,103.1,33.9,100.9,30.6z"/>
		<path fill="#D2D3D4" d="M139.1,33.8c-1.5,1.3-3.6,2-6.2,2c-4.2,0-7.3-1.8-7.4-6.7V15.6h-4.5v-4h4.5V6.1l5.1-1.4v7h8.2v4h-8.2v12.6
			c0,2.3,1.4,3.4,3.4,3.4c1.8,0,2.9-0.6,4-1.5L139.1,33.8z"/>
		<path fill="#D2D3D4" d="M161.5,31.7l-0.3,3.5c-0.7,0.3-1.6,0.5-2.7,0.5c-2.5,0-4.5-1.1-5.1-3.4c-1.6,2.4-4.7,3.5-7.5,3.5
			c-4.5,0-7.8-2.2-7.8-6.4c0-3.5,2.4-5.8,6.6-6.7l8.4-1.7v-0.9c0-3.1-1.8-5-4.9-5c-2.8,0-5,1.2-5.9,4.2l-4.3-1.8
			c1.2-3.8,4.7-6.4,10.3-6.4c5.6,0,9.7,2.7,9.7,8.4v10.6c0,1.2,0.6,1.8,1.8,1.8C160.4,31.9,161.1,31.8,161.5,31.7z M153.1,26.6v-2
			l-6,1.2c-2.7,0.5-4,1.3-4,3.2c0,1.8,1.5,2.9,3.7,2.9C150.1,31.9,153.1,30.4,153.1,26.6z"/>
	</g>
	<g>
		<path fill="#A8AAAD" d="M70.2,86.7H71l1.1,4l1-4h0.8l1,4l1-4h0.8l-1.4,4.7h-0.9l-0.7-2.8l-0.2-1.1h0l-0.2,1.1l-0.7,2.8h-0.9
			L70.2,86.7z"/>
		<path fill="#A8AAAD" d="M77.6,86.7H81v0.7h-2.6v1.3h2.1v0.6h-2.1v1.4h2.7v0.7h-3.5V86.7z"/>
		<path fill="#A8AAAD" d="M82.1,86.7H84c1.1,0,1.6,0.5,1.6,1.3c0,0.5-0.3,0.9-0.8,1v0c0.6,0.1,1,0.5,1,1.1c0,0.8-0.6,1.3-1.7,1.3
			h-1.9V86.7z M83.9,88.7c0.6,0,0.9-0.2,0.9-0.7c0-0.5-0.3-0.7-0.9-0.7h-1v1.4H83.9z M84,90.8c0.6,0,0.9-0.3,0.9-0.7
			s-0.3-0.7-0.9-0.7h-1.2v1.4H84z"/>
		<path fill="#A8AAAD" d="M92,92.6h-0.7v-6.3H92V92.6z"/>
		<path fill="#A8AAAD" d="M101.4,87.6l-0.5,0.5c-0.4-0.5-0.8-0.8-1.4-0.8c-0.7,0-1,0.3-1,0.7c0,0.3,0.2,0.5,0.7,0.6l1,0.2
			c0.9,0.2,1.2,0.6,1.2,1.2c0,0.9-0.7,1.4-1.9,1.4c-1,0-1.7-0.4-2.1-1L98,90c0.3,0.5,0.8,0.9,1.6,0.9c0.7,0,1-0.2,1-0.7
			c0-0.3-0.1-0.5-0.7-0.6l-1-0.2c-0.9-0.2-1.2-0.6-1.2-1.2c0-0.8,0.7-1.4,1.8-1.4C100.4,86.7,101,87,101.4,87.6z"/>
		<path fill="#A8AAAD" d="M106.6,89.1c0,1.5-0.9,2.4-2.2,2.4c-1.4,0-2.2-0.9-2.2-2.4c0-1.5,0.9-2.4,2.2-2.4
			C105.8,86.7,106.6,87.6,106.6,89.1z M103,89.1c0,1.1,0.5,1.8,1.4,1.8c0.9,0,1.4-0.6,1.4-1.8c0-1.1-0.5-1.8-1.4-1.8
			C103.6,87.3,103,88,103,89.1z"/>
		<path fill="#A8AAAD" d="M109.7,91.5c-1.4,0-2.2-0.9-2.2-2.4c0-1.5,0.9-2.4,2.2-2.4c0.9,0,1.6,0.4,1.9,1.1l-0.7,0.3
			c-0.2-0.6-0.5-0.8-1.1-0.8c-0.9,0-1.4,0.6-1.4,1.8c0,1.1,0.5,1.8,1.4,1.8c0.6,0,1-0.3,1.2-0.9l0.7,0.2
			C111.4,91,110.6,91.5,109.7,91.5z"/>
		<path fill="#A8AAAD" d="M113.4,91.4h-0.8v-4.7h0.8V91.4z"/>
		<path fill="#A8AAAD" d="M117.4,90.2h-2l-0.4,1.2h-0.8l1.8-4.7h0.9l1.8,4.7h-0.8L117.4,90.2z M117.2,89.6l-0.5-1.5l-0.2-0.7h0
			l-0.2,0.7l-0.6,1.5H117.2z"/>
		<path fill="#A8AAAD" d="M122.8,90.8v0.7h-3.3v-4.7h0.8v4H122.8z"/>
		<path fill="#A8AAAD" d="M130.6,91.4h-0.7v-2.7l0-1.3h0l-1.4,4h-0.6l-1.4-4h0l0.1,1.3v2.7h-0.7v-4.7h1.1l0.9,2.7l0.3,1.1h0l0.3-1.1
			l0.9-2.7h1.1V91.4z"/>
		<path fill="#A8AAAD" d="M134.7,90.2h-2l-0.4,1.2h-0.8l1.8-4.7h0.9l1.8,4.7h-0.8L134.7,90.2z M134.4,89.6l-0.5-1.5l-0.2-0.7h0
			l-0.2,0.7l-0.6,1.5H134.4z"/>
		<path fill="#A8AAAD" d="M139.7,91.4l-1.2-1.9h-1v1.9h-0.8v-4.7h1.9c1,0,1.6,0.5,1.6,1.4c0,0.7-0.4,1.1-1,1.3l1.3,2H139.7z
			 M137.5,88.9h1.1c0.6,0,0.9-0.2,0.9-0.8c0-0.5-0.3-0.8-0.9-0.8h-1.1V88.9z"/>
		<path fill="#A8AAAD" d="M143,89.2l-0.8,0.8v1.4h-0.8v-4.7h0.8v2.3l2.2-2.3h0.9l-1.8,1.9l1.8,2.8h-0.9L143,89.2z"/>
		<path fill="#A8AAAD" d="M146.2,86.7h3.4v0.7H147v1.3h2.1v0.6H147v1.4h2.7v0.7h-3.5V86.7z"/>
		<path fill="#A8AAAD" d="M154.2,87.4h-1.6v4h-0.8v-4h-1.6v-0.7h4V87.4z"/>
		<path fill="#A8AAAD" d="M155.9,91.4h-0.8v-4.7h0.8V91.4z"/>
		<path fill="#A8AAAD" d="M161.1,91.4h-0.9l-1.8-3l-0.5-0.8h0l0,0.8v3h-0.7v-4.7h0.9l1.8,2.9l0.5,0.8h0l0-0.8v-3h0.7V91.4z"/>
		<path fill="#A8AAAD" d="M166.4,89v2.4h-0.6l0-0.6c-0.3,0.4-0.8,0.7-1.4,0.7c-1.3,0-2.2-0.9-2.2-2.4c0-1.5,0.9-2.4,2.3-2.4
			c1,0,1.5,0.4,1.9,1.1l-0.7,0.3c-0.2-0.5-0.6-0.8-1.2-0.8c-0.9,0-1.5,0.6-1.5,1.8c0,1.1,0.5,1.8,1.5,1.8c0.7,0,1.2-0.4,1.2-1.1
			v-0.1h-1.4V89H166.4z"/>
	</g>
	<g>
		<polygon fill="#D2D3D4" points="56.5,13.6 22.5,33.3 22.5,12.9 39.8,3.3 		"/>
		<polygon fill="#F2F2F2" points="56.5,33.9 22.5,53.3 22.5,33.3 56.5,13.6 		"/>
		<polygon fill="#D2D3D4" points="56.8,53.8 22.5,73.7 22.5,53.3 39.7,43.4 		"/>
		<polygon fill="#F2F2F2" points="56.8,74.1 39.4,83.9 22.5,73.7 56.8,53.8 		"/>
	</g>
</g>
</svg>
