<?xml version="1.0" encoding="utf-8"?>
<!-- Generator: Adobe Illustrator 18.0.0, SVG Export Plug-In . SVG Version: 6.00 Build 0)  -->
<!DOCTYPE svg PUBLIC "-//W3C//DTD SVG 1.1 Basic//EN" "http://www.w3.org/Graphics/SVG/1.1/DTD/svg11-basic.dtd">
<svg version="1.1" baseProfile="basic" id="Layer_1"
	 xmlns="http://www.w3.org/2000/svg" xmlns:xlink="http://www.w3.org/1999/xlink" x="0px" y="0px" viewBox="0 0 290 95"
	 xml:space="preserve">
<g>
	<g>
		<path fill="#B52469" d="M106.3,58.5c0,12.9-6.9,20.1-19.5,20.1H69.7V38.4h17.1C99.4,38.4,106.3,45.7,106.3,58.5z M95.5,58.5
			c0-8-3-12.2-9.8-12.2h-5.5v24.4h5.5C92.6,70.7,95.5,66.6,95.5,58.5z"/>
		<path fill="#B52469" d="M136.2,66h-20.8c0.5,4.2,2.8,5.9,6.4,5.9c3,0,4.8-1.3,5.7-3.5l8.3,2.7c-1.8,5.2-7.6,8-14,8
			c-10.1,0-16.5-5.8-16.5-15.8c0-10.1,6.5-15.8,16-15.8c9.6,0,15.1,6,15.1,14.4C136.5,63.5,136.4,65.1,136.2,66z M115.5,60.5h11.1
			c-0.4-3.7-2.1-5.7-5.2-5.7C118.1,54.8,116.1,56.6,115.5,60.5z"/>
		<path fill="#B52469" d="M134.3,73.5l4.9-5.7c2,2.6,5.5,4.6,9.7,4.6c2.5,0,4.3-0.7,4.3-2.3c0-1.1-0.6-1.8-3-2.3l-4.3-0.9
			c-7.7-1.6-10.5-4.5-10.5-9.4c0-4.9,4.5-9.9,14.3-9.9c6.2,0,11,1.9,13.8,5.2l-4.9,5.6c-1.9-2.4-5.4-3.9-8.4-3.9
			c-3,0-4.4,0.9-4.4,2.3c0,1.1,0.9,1.8,3.6,2.4l5.5,1.1c6.3,1.2,8.8,4.3,8.8,8.5c0,5.9-4.8,10.5-14.3,10.5
			C143.2,79.3,137.8,77.2,134.3,73.5z"/>
		<path fill="#B52469" d="M162.4,39.7c0-3.5,1.8-5,6-5s6,1.5,6,5c0,3.4-1.8,4.9-6,4.9S162.4,43.1,162.4,39.7z M173.6,78.6h-10.4
			V48.2h10.4V78.6z"/>
		<path fill="#B52469" d="M205.3,80.5c0,7.6-6.5,11.3-16.8,11.3c-11,0-15.6-2.9-15.6-7.7c0-2.7,1.7-4.8,5.8-5.5
			c-3-1.1-4.5-3.2-4.5-6.2c0-2.9,1.8-5.1,4.8-6.2c-3.2-1.7-4.9-4.5-4.9-8.3c0-6.6,5.4-10.4,14.7-10.4c2.4,0,4.5,0.2,6.4,0.7
			c0.5-4.7,3.5-8.8,9.4-8.3l0.9,6.9c-3.8-0.5-5.9,0.9-6.6,2.9c3,1.8,4.6,4.5,4.6,8.1c0,6.6-5.4,10.3-14.7,10.3c-2.1,0-4-0.2-5.7-0.5
			c-1.5,0.4-2,1.2-2,2.1c0,1.3,1.1,2.1,3.4,2.1h9.7C201.4,71.9,205.3,74.9,205.3,80.5z M197.3,81.9c0-1.2-0.8-1.9-3.1-1.9h-10.9
			c-1.6,0-2.6,0.9-2.6,2.1c0,1.8,2.9,2.9,7.9,2.9C194.4,85,197.3,83.8,197.3,81.9z M184.4,57.9c0,2.8,1.8,4.4,4.5,4.4
			c2.6,0,4.5-1.6,4.5-4.4c0-2.9-1.9-4.4-4.5-4.4C186.3,53.5,184.4,55.1,184.4,57.9z"/>
		<path fill="#B52469" d="M234.2,58.4v20.3h-10.4V61.1c0-4.2-1.8-5.6-4.3-5.6c-3,0-5.5,1.9-5.5,7v16.1h-10.4V48.2h9.3l0.3,6.2
			c1.8-4.4,5.5-6.8,10.4-6.8C229.9,47.6,234.2,51.3,234.2,58.4z"/>
	</g>
	<g>
		<path fill="#424143" d="M74.6,34.6h-5V3.4h5V34.6z"/>
		<path fill="#424143" d="M100.1,19.3v15.3h-5V20.8c0-4.6-2.2-6.2-5-6.2c-3.1,0-6.4,2-6.4,7.4v12.5h-5V11H83l0.2,4.1
			c1.6-3.1,4.5-4.5,8-4.5C96.2,10.5,100.1,13.4,100.1,19.3z"/>
		<path fill="#424143" d="M101.1,29.8l3.5-3c1.4,2.6,4.1,4.2,7.7,4.2c2.9,0,4.7-1.1,4.7-2.9c0-1.2-0.6-2.2-2.8-2.6l-5-1
			c-5-1-7-3.3-7-6.7c0-3.8,3.5-7.3,9.7-7.3c4.7,0,8.1,1.7,9.9,4.8l-3.5,2.9c-1.2-2.5-3.8-3.7-6.3-3.7c-3.1,0-4.8,1.2-4.8,3
			c0,1.2,0.8,2.2,3.3,2.7l5.4,1.1c4.5,0.9,6.2,3.1,6.2,6.1c0,4.5-3.8,7.6-9.9,7.6C107.6,35,103.4,33.1,101.1,29.8z"/>
		<path fill="#424143" d="M139.2,33c-1.5,1.3-3.6,2-6.2,2c-4.2,0-7.3-1.8-7.4-6.7V14.9h-4.5v-4h4.5V5.5l5-1.4V11h8.1v4h-8.1v12.5
			c0,2.3,1.4,3.4,3.4,3.4c1.7,0,2.9-0.6,4-1.5L139.2,33z"/>
		<path fill="#424143" d="M161.5,30.9l-0.3,3.5c-0.7,0.3-1.6,0.5-2.7,0.5c-2.5,0-4.5-1.1-5.1-3.4c-1.6,2.4-4.7,3.5-7.5,3.5
			c-4.5,0-7.8-2.2-7.8-6.4c0-3.5,2.4-5.8,6.6-6.7l8.4-1.7v-0.9c0-3.1-1.8-5-4.9-5c-2.8,0-5,1.2-5.9,4.2l-4.2-1.8
			c1.2-3.8,4.7-6.4,10.3-6.4c5.6,0,9.7,2.7,9.7,8.4v10.5c0,1.2,0.6,1.7,1.7,1.7C160.4,31.2,161.1,31.1,161.5,30.9z M153.1,25.8v-2
			l-5.9,1.2c-2.7,0.5-4,1.3-4,3.2c0,1.7,1.5,2.9,3.7,2.9C150.2,31.1,153.1,29.6,153.1,25.8z"/>
	</g>
	<g>
		<path fill="#A8AAAD" d="M70.7,85.7h0.8l1,4l1-4h0.8l1,4l1-4h0.8l-1.4,4.7h-0.9l-0.7-2.8l-0.2-1.1h0l-0.2,1.1l-0.7,2.8H72
			L70.7,85.7z"/>
		<path fill="#A8AAAD" d="M78,85.7h3.4v0.7h-2.6v1.3h2v0.6h-2v1.4h2.7v0.7H78V85.7z"/>
		<path fill="#A8AAAD" d="M82.5,85.7h1.8c1.1,0,1.6,0.5,1.6,1.3c0,0.5-0.3,0.9-0.8,1v0c0.6,0.1,1,0.5,1,1.1c0,0.8-0.6,1.3-1.7,1.3
			h-1.9V85.7z M84.3,87.7c0.6,0,0.9-0.2,0.9-0.7s-0.3-0.7-0.9-0.7h-1v1.4H84.3z M84.4,89.8c0.6,0,0.9-0.3,0.9-0.7s-0.3-0.7-0.9-0.7
			h-1.2v1.4H84.4z"/>
		<path fill="#A8AAAD" d="M92.3,91.6h-0.7v-6.3h0.7V91.6z"/>
		<path fill="#A8AAAD" d="M101.7,86.6l-0.5,0.5c-0.4-0.5-0.8-0.8-1.4-0.8c-0.7,0-1,0.3-1,0.7c0,0.3,0.2,0.5,0.7,0.6l0.9,0.2
			c0.9,0.2,1.2,0.6,1.2,1.2c0,0.9-0.7,1.4-1.9,1.4c-1,0-1.7-0.4-2.1-1l0.5-0.5c0.3,0.5,0.8,0.8,1.6,0.8c0.6,0,1-0.2,1-0.7
			c0-0.3-0.1-0.5-0.7-0.6l-1-0.2c-0.8-0.2-1.2-0.6-1.2-1.2c0-0.8,0.7-1.4,1.8-1.4C100.6,85.6,101.3,86,101.7,86.6z"/>
		<path fill="#A8AAAD" d="M106.9,88c0,1.5-0.8,2.4-2.2,2.4c-1.3,0-2.2-0.9-2.2-2.4c0-1.5,0.8-2.4,2.2-2.4
			C106,85.6,106.9,86.6,106.9,88z M103.3,88c0,1.1,0.5,1.7,1.4,1.7c0.9,0,1.4-0.6,1.4-1.7c0-1.1-0.5-1.7-1.4-1.7
			C103.8,86.3,103.3,86.9,103.3,88z"/>
		<path fill="#A8AAAD" d="M109.9,90.5c-1.3,0-2.2-0.9-2.2-2.4c0-1.5,0.9-2.4,2.2-2.4c0.9,0,1.6,0.4,1.9,1.1l-0.7,0.3
			c-0.2-0.6-0.5-0.8-1.1-0.8c-0.9,0-1.4,0.6-1.4,1.7c0,1.1,0.5,1.7,1.4,1.7c0.6,0,1-0.3,1.2-0.9l0.7,0.2
			C111.6,90,110.9,90.5,109.9,90.5z"/>
		<path fill="#A8AAAD" d="M113.6,90.4h-0.8v-4.7h0.8V90.4z"/>
		<path fill="#A8AAAD" d="M117.6,89.2h-2l-0.4,1.2h-0.8l1.8-4.7h0.9l1.8,4.7h-0.8L117.6,89.2z M117.4,88.5l-0.5-1.5l-0.2-0.7h0
			l-0.2,0.7l-0.6,1.5H117.4z"/>
		<path fill="#A8AAAD" d="M123,89.7v0.7h-3.3v-4.7h0.8v4H123z"/>
		<path fill="#A8AAAD" d="M130.8,90.4h-0.7v-2.7l0-1.3h0l-1.4,4h-0.6l-1.4-4h0l0.1,1.3v2.7H126v-4.7h1.1l0.9,2.7l0.3,1.1h0l0.3-1.1
			l0.9-2.7h1.1V90.4z"/>
		<path fill="#A8AAAD" d="M134.8,89.2h-2l-0.4,1.2h-0.8l1.8-4.7h0.9l1.8,4.7h-0.8L134.8,89.2z M134.6,88.5L134,87l-0.2-0.7h0
			l-0.2,0.7l-0.6,1.5H134.6z"/>
		<path fill="#A8AAAD" d="M139.8,90.4l-1.2-1.9h-1v1.9h-0.7v-4.7h1.9c1,0,1.6,0.5,1.6,1.4c0,0.7-0.4,1.1-1,1.3l1.3,2H139.8z
			 M137.6,87.9h1.1c0.6,0,0.9-0.2,0.9-0.8s-0.3-0.8-0.9-0.8h-1.1V87.9z"/>
		<path fill="#A8AAAD" d="M143.1,88.1l-0.8,0.8v1.4h-0.8v-4.7h0.8V88l2.1-2.3h0.9l-1.8,1.9l1.8,2.8h-0.9L143.1,88.1z"/>
		<path fill="#A8AAAD" d="M146.3,85.7h3.4v0.7h-2.6v1.3h2v0.6h-2v1.4h2.7v0.7h-3.5V85.7z"/>
		<path fill="#A8AAAD" d="M154.3,86.4h-1.6v4h-0.8v-4h-1.6v-0.7h3.9V86.4z"/>
		<path fill="#A8AAAD" d="M155.9,90.4h-0.8v-4.7h0.8V90.4z"/>
		<path fill="#A8AAAD" d="M161.1,90.4h-0.9l-1.8-2.9l-0.5-0.8h0l0,0.8v3h-0.7v-4.7h0.9l1.8,2.9l0.5,0.8h0l0-0.8v-3h0.7V90.4z"/>
		<path fill="#A8AAAD" d="M166.4,88v2.4h-0.6l0-0.6c-0.3,0.4-0.7,0.7-1.4,0.7c-1.3,0-2.2-0.9-2.2-2.4c0-1.5,0.9-2.4,2.2-2.4
			c1,0,1.5,0.4,1.9,1.1l-0.7,0.3c-0.2-0.5-0.6-0.8-1.2-0.8c-0.9,0-1.5,0.6-1.5,1.7c0,1.1,0.5,1.8,1.5,1.8c0.7,0,1.2-0.4,1.2-1.1
			v-0.1h-1.4V88H166.4z"/>
	</g>
	<g>
		<polygon fill="#2D2C2A" points="57,12.9 23.1,32.5 23.1,12.2 40.4,2.6 		"/>
		<polygon fill="#B52469" points="57,33.1 23.1,52.4 23.1,32.5 57,12.9 		"/>
		<polygon fill="#2D2C2A" points="57.3,52.9 23.1,72.7 23.1,52.4 40.3,42.6 		"/>
		<polygon fill="#B52469" points="57.3,73.1 39.9,82.8 23.1,72.7 57.3,52.9 		"/>
	</g>
</g>
</svg>
